<svg width="182" height="50" viewBox="0 0 182 50" fill="none" xmlns="http://www.w3.org/2000/svg">
<path d="M40.5057 32H49.6818V30.4375H42.9205V30.3239L46.1875 26.8295C48.6875 24.152 49.4261 22.902 49.4261 21.2898C49.4261 19.0455 47.608 17.2557 45.0511 17.2557C42.5014 17.2557 40.5625 18.9886 40.5625 21.5455H42.2386C42.2386 19.8906 43.3111 18.7898 44.9943 18.7898C46.571 18.7898 47.7784 19.7557 47.7784 21.2898C47.7784 22.6321 46.9901 23.6264 45.3068 25.4659L40.5057 30.7216V32ZM57.3594 32.1989C60.5696 32.1989 62.4162 29.4787 62.4162 24.7273C62.4162 20.0114 60.5412 17.2557 57.3594 17.2557C54.1776 17.2557 52.3026 20.0114 52.3026 24.7273C52.3026 29.4787 54.1491 32.1989 57.3594 32.1989ZM57.3594 30.6364C55.2429 30.6364 54.0071 28.5128 54.0071 24.7273C54.0071 20.9489 55.2571 18.7898 57.3594 18.7898C59.4616 18.7898 60.7116 20.9489 60.7116 24.7273C60.7116 28.5128 59.4759 30.6364 57.3594 30.6364ZM65.1151 32H74.2912V30.4375H67.5298V30.3239L70.7969 26.8295C73.2969 24.152 74.0355 22.902 74.0355 21.2898C74.0355 19.0455 72.2173 17.2557 69.6605 17.2557C67.1108 17.2557 65.1719 18.9886 65.1719 21.5455H66.848C66.848 19.8906 67.9205 18.7898 69.6037 18.7898C71.1804 18.7898 72.3878 19.7557 72.3878 21.2898C72.3878 22.6321 71.5994 23.6264 69.9162 25.4659L65.1151 30.7216V32ZM77.2244 32H86.4006V30.4375H79.6392V30.3239L82.9062 26.8295C85.4062 24.152 86.1449 22.902 86.1449 21.2898C86.1449 19.0455 84.3267 17.2557 81.7699 17.2557C79.2202 17.2557 77.2812 18.9886 77.2812 21.5455H78.9574C78.9574 19.8906 80.0298 18.7898 81.7131 18.7898C83.2898 18.7898 84.4972 19.7557 84.4972 21.2898C84.4972 22.6321 83.7088 23.6264 82.0256 25.4659L77.2244 30.7216V32Z" fill="black"/>
<path d="M9.14773 32.2273C13.3026 32.2273 16.6619 28.8679 16.6477 24.7273C16.6335 20.5866 13.3026 17.2273 9.14773 17.2273C5.02131 17.2273 1.66193 20.5866 1.64773 24.7273C1.63352 28.8679 5.02131 32.2273 9.14773 32.2273ZM9.14773 30.5795C5.91619 30.5795 3.28125 27.9446 3.29545 24.7344C3.30966 21.5028 5.9304 18.875 9.14773 18.875C12.3793 18.875 14.9858 21.4886 15 24.7344C15.0142 27.9588 12.3935 30.5795 9.14773 30.5795ZM5 24.7273C5 27.0568 6.8892 28.946 9.21875 28.946C11.2358 28.946 12.7841 27.5256 13.054 25.6364H11.3352C11.1364 26.6094 10.3125 27.2983 9.21875 27.2983C7.7983 27.2983 6.64773 26.1477 6.64773 24.7273C6.64773 23.3068 7.7983 22.1562 9.21875 22.1562C10.3125 22.1562 11.2855 22.8452 11.4773 23.8182H13.196C12.9261 21.929 11.2358 20.5085 9.21875 20.5085C6.8892 20.5085 5 22.3977 5 24.7273Z" fill="black"/>
<path d="M113.938 36.3182C116.551 36.3182 118.653 35.125 118.653 32.3125V21.0909H117.034V22.8239H116.864C116.494 22.2557 115.812 20.9489 113.682 20.9489C110.926 20.9489 109.023 23.1364 109.023 26.4886C109.023 29.8977 111.011 31.8295 113.653 31.8295C115.784 31.8295 116.466 30.5795 116.835 29.983H116.977V32.1989C116.977 34.017 115.699 34.8409 113.938 34.8409C111.956 34.8409 111.26 33.7969 110.812 33.1932L109.477 34.1307C110.159 35.2741 111.501 36.3182 113.938 36.3182ZM113.881 30.3239C111.778 30.3239 110.699 28.733 110.699 26.4602C110.699 24.2443 111.75 22.4545 113.881 22.4545C115.926 22.4545 117.006 24.1023 117.006 26.4602C117.006 28.875 115.898 30.3239 113.881 30.3239ZM121.722 32H123.398V21.0909H121.722V32ZM122.574 19.2727C123.227 19.2727 123.767 18.7614 123.767 18.1364C123.767 17.5114 123.227 17 122.574 17C121.92 17 121.381 17.5114 121.381 18.1364C121.381 18.7614 121.92 19.2727 122.574 19.2727ZM131.212 21.0909H128.882V18.4773H127.206V21.0909H125.559V22.5114H127.206V29.3295C127.206 31.233 128.74 32.142 130.161 32.142C130.786 32.142 131.184 32.0284 131.411 31.9432L131.07 30.4375C130.928 30.4659 130.701 30.5227 130.331 30.5227C129.593 30.5227 128.882 30.2955 128.882 28.875V22.5114H131.212V21.0909ZM135.644 25.4375C135.644 23.5341 136.858 22.4545 138.513 22.4545C140.09 22.4545 141.042 23.4489 141.042 25.1818V32H142.718V25.0682C142.718 22.2628 141.226 20.9489 138.996 20.9489C137.277 20.9489 136.297 21.6662 135.786 22.7955H135.644V17.4545H133.968V32H135.644V25.4375ZM152.659 27.5398C152.659 29.5852 151.097 30.5227 149.847 30.5227C148.455 30.5227 147.46 29.5 147.46 27.9091V21.0909H145.784V28.0227C145.784 30.8068 147.261 32.142 149.307 32.142C150.955 32.142 152.034 31.2614 152.545 30.1534H152.659V32H154.335V21.0909H152.659V27.5398ZM157.632 32H159.252V30.3239H159.451C159.82 30.9205 160.53 32.2273 162.632 32.2273C165.36 32.2273 167.263 30.0398 167.263 26.5739C167.263 23.1364 165.36 20.9489 162.604 20.9489C160.473 20.9489 159.82 22.2557 159.451 22.8239H159.309V17.4545H157.632V32ZM159.28 26.5455C159.28 24.1023 160.36 22.4545 162.405 22.4545C164.536 22.4545 165.587 24.2443 165.587 26.5455C165.587 28.875 164.507 30.7216 162.405 30.7216C160.388 30.7216 159.28 29.017 159.28 26.5455Z" fill="black"/>
</svg>
