<svg width="80" height="22" viewBox="0 0 80 22" fill="none" xmlns="http://www.w3.org/2000/svg">
<g id="logo">
<g id="logo_vector">
<path id="Vector 1" d="M1.52667 19.9466L9.92118 2.66409C9.92118 2.66409 2.57596 6.00909 1.00199 9.91158C-0.571983 13.8141 -0.0728979 17.4038 1.00201 19.9466" stroke="#499A18" stroke-linecap="round" stroke-linejoin="round"/>
<path id="Vector 2" d="M0.99646 19.9925C0.99646 19.9925 26.7102 -9.60087 18.3157 3.2216C9.92121 16.0441 19.1707 5.63145 14.4973 13.0678C9.82402 20.5041 0.99646 19.9925 0.99646 19.9925Z" stroke="#499A18" stroke-linejoin="round"/>
</g>
<path id="Plants" d="M25.9264 8.84138C27.2811 8.84138 28.2837 9.06538 28.9344 9.51338C29.5957 9.95071 29.9264 10.7294 29.9264 11.8494C29.9264 12.9694 29.6011 13.86 28.9504 14.5214C28.2997 15.172 27.2491 15.4974 25.7984 15.4974H24.4544L24.4064 18.9694L25.6544 19.0814C25.6544 19.38 25.5637 19.7 25.3824 20.0414H21.7824L21.7344 19.4974C22.1824 19.3267 22.6411 19.1987 23.1104 19.1134C23.0464 14.9534 22.9931 11.86 22.9504 9.83338C22.6624 9.78005 22.1931 9.65205 21.5424 9.44938L21.6224 8.84138H25.9264ZM25.6384 14.4574C26.5557 14.4467 27.2544 14.2174 27.7344 13.7694C28.2144 13.3107 28.4544 12.708 28.4544 11.9614C28.4544 11.2147 28.2197 10.6974 27.7504 10.4094C27.2811 10.1107 26.5291 9.96138 25.4944 9.96138C25.3024 9.96138 24.9771 9.96671 24.5184 9.97738C24.5184 9.98805 24.5024 11.4867 24.4704 14.4734L25.6384 14.4574ZM32.9855 8.15338C33.3162 8.15338 33.5508 8.16405 33.6895 8.18538C33.6895 8.55871 33.6202 8.98538 33.4815 9.46538C33.3855 15.7587 33.3375 18.9214 33.3375 18.9534L34.6815 19.0814C34.6815 19.38 34.5908 19.7 34.4095 20.0414H30.7295L30.6815 19.4814C31.1722 19.3107 31.6522 19.1827 32.1215 19.0974L31.9615 9.41738C31.3748 9.38538 30.9055 9.32138 30.5535 9.22538L30.6175 8.39338C31.1615 8.23338 31.9508 8.15338 32.9855 8.15338ZM41.9763 14.8094L41.8963 18.9374C42.3549 18.9694 42.8136 19.044 43.2723 19.1614L43.2403 19.7214C43.0696 19.8067 42.7603 19.9027 42.3123 20.0094C41.8749 20.1054 41.4429 20.1534 41.0163 20.1534C40.8243 19.7694 40.7176 19.4014 40.6963 19.0494C39.4803 19.8494 38.6269 20.2494 38.1363 20.2494C37.3789 20.2494 36.7709 20.0467 36.3123 19.6414C35.8536 19.236 35.6243 18.6707 35.6243 17.9454C35.6243 16.2707 36.6483 15.4067 38.6963 15.3534C39.8909 15.3214 40.4936 15.3054 40.5043 15.3054L40.4883 14.7614C40.4669 14.0254 40.3283 13.4974 40.0723 13.1774C39.8163 12.8467 39.3576 12.6814 38.6963 12.6814C38.4189 12.6814 38.1203 12.7454 37.8003 12.8734L37.4163 14.4734C37.3629 14.484 37.2723 14.4894 37.1443 14.4894L36.4883 14.4414C36.3176 13.9827 36.2269 13.348 36.2163 12.5374C36.4189 12.4307 36.8829 12.2707 37.6083 12.0574C38.3336 11.8334 38.7976 11.7214 39.0003 11.7214C40.0883 11.7214 40.8563 11.9614 41.3043 12.4414C41.7523 12.9214 41.9763 13.7107 41.9763 14.8094ZM38.4883 19.1614C38.7976 19.1614 39.5123 18.8147 40.6323 18.1214L40.5523 16.1214C39.8269 16.1854 39.2189 16.244 38.7283 16.2974C38.2376 16.3507 37.8429 16.4947 37.5443 16.7294C37.2456 16.9534 37.0963 17.3107 37.0963 17.8014C37.0963 18.708 37.5603 19.1614 38.4883 19.1614ZM49.1613 11.7214C50.1853 11.7214 50.9266 11.9774 51.3853 12.4894C51.8439 12.9907 52.0733 13.7587 52.0733 14.7934C52.0733 15.092 52.0306 16.4787 51.9453 18.9534L53.2893 19.0814C53.2893 19.38 53.1986 19.7 53.0173 20.0414H49.3373L49.2893 19.4814C49.7799 19.3107 50.2599 19.1827 50.7293 19.0974C50.6653 16.3027 50.6066 14.7507 50.5533 14.4414C50.5106 14.1214 50.4359 13.844 50.3293 13.6094C50.2226 13.3747 50.0626 13.2094 49.8493 13.1134C49.6359 13.0174 49.3533 12.9694 49.0013 12.9694C48.2973 12.9694 47.6146 13.14 46.9533 13.4814C46.8893 15.9134 46.8466 17.7374 46.8253 18.9534L48.1693 19.0814C48.1693 19.38 48.0786 19.7 47.8973 20.0414H44.2173L44.1693 19.4814C44.6599 19.3107 45.1399 19.1827 45.6093 19.0974C45.5453 16.388 45.4919 14.3827 45.4493 13.0814C44.8626 13.0494 44.3933 12.9854 44.0413 12.8894L44.1053 12.0574C44.6813 11.8974 45.5186 11.8174 46.6173 11.8174C46.7453 12.0094 46.8413 12.2867 46.9053 12.6494C47.3639 12.404 47.8226 12.1907 48.2813 12.0094C48.7506 11.8174 49.0439 11.7214 49.1613 11.7214ZM55.2126 19.0494L55.0846 13.0174H53.8526L53.8046 12.4574C53.9113 12.3827 54.2206 12.244 54.7326 12.0414L56.0446 9.99338C56.258 10.0147 56.4233 10.068 56.5406 10.1534L56.5246 11.9134C57.3246 11.9134 57.9806 11.9667 58.4926 12.0734C58.4926 12.3614 58.402 12.676 58.2206 13.0174H56.4926C56.4713 14.2974 56.45 16.2387 56.4286 18.8414C57.026 18.8734 57.6233 18.98 58.2206 19.1614L58.2046 19.7214C58.0553 19.8174 57.6713 19.9294 57.0526 20.0574C56.4446 20.1854 55.9433 20.2494 55.5486 20.2494C55.4953 20.164 55.426 19.9827 55.3406 19.7054C55.2553 19.4174 55.2126 19.1987 55.2126 19.0494ZM60.9191 19.0174C61.2925 19.1774 61.7458 19.2574 62.2791 19.2574C62.8231 19.2574 63.2498 19.156 63.5591 18.9534C63.8685 18.7507 64.0231 18.4734 64.0231 18.1214C64.0231 17.7694 63.8791 17.476 63.5911 17.2414C63.3031 17.0067 62.9511 16.7987 62.5351 16.6174C62.1191 16.436 61.7031 16.244 61.2871 16.0414C60.8711 15.8387 60.5191 15.572 60.2311 15.2414C59.9431 14.9107 59.7991 14.5267 59.7991 14.0894C59.7991 13.3534 60.0445 12.7774 60.5351 12.3614C61.0258 11.9347 61.7031 11.7214 62.5671 11.7214C63.4418 11.7214 64.2631 11.9187 65.0311 12.3134C65.0418 12.42 65.0471 12.708 65.0471 13.1774C65.0471 13.636 64.9991 14.0307 64.9031 14.3614C64.6471 14.4467 64.3431 14.4894 63.9911 14.4894L63.4631 12.8574C63.2285 12.74 62.9085 12.6814 62.5031 12.6814C62.1085 12.6814 61.7938 12.788 61.5591 13.0014C61.3245 13.204 61.2071 13.4654 61.2071 13.7854C61.2071 14.0947 61.3511 14.3667 61.6391 14.6014C61.9378 14.836 62.2951 15.0494 62.7111 15.2414C63.1271 15.4227 63.5431 15.62 63.9591 15.8334C64.3751 16.036 64.7271 16.308 65.0151 16.6494C65.3138 16.98 65.4631 17.364 65.4631 17.8014C65.4631 18.5694 65.1645 19.172 64.5671 19.6094C63.9805 20.036 63.2551 20.2494 62.3911 20.2494C61.9218 20.2494 61.4205 20.1747 60.8871 20.0254C60.3538 19.8654 59.9058 19.6627 59.5431 19.4174C59.5431 18.7027 59.6071 18.068 59.7351 17.5134C59.9805 17.4707 60.3111 17.4494 60.7271 17.4494L60.9191 19.0174Z" fill="black"/>
</g>
</svg>
